<svg xmlns="http://www.w3.org/2000/svg" viewBox="0 0 512 512" width="100" height="100" class="portal-icon">
  <path fill="currentColor" d="M 272 96 a 48 48 0 1 0 0 -96 a 48 48 0 1 0 0 96 Z m -90.7 12.6 c -14 -3.5 -28.7 -3.5 -42.7 0 l -1.8 0.5 c -13.3 3.3 -25.6 9.7 -35.9 18.6 L 56.4 165.8 c -10.1 8.6 -11.2 23.8 -2.6 33.8 s 23.8 11.2 33.8 2.6 l 44.5 -38.2 c 4.7 -4 10.3 -6.9 16.3 -8.4 l 1.8 -0.5 c 6.4 -1.6 13 -1.6 19.4 0 l 8.6 2.1 l -32.7 98 c -8.5 25.5 2.3 53.4 25.7 66.5 l 88 49.5 L 225.1 480.8 c -4 12.7 3.1 26.1 15.7 30.1 s 26.1 -3.1 30.1 -15.8 L 307 379.5 c 5.6 -18 -2.1 -37.5 -18.6 -46.8 l -32.1 -18 l 28.1 -84.4 l 5.6 18.2 c 7.2 23.5 28.9 39.5 53.5 39.5 l 8.4 0 l 16.5 0 l 23.5 0 c 13.3 0 24 -10.7 24 -24 s -10.7 -24 -24 -24 l -23.9 0 c 1.2 -82.9 11.4 -134.5 24.1 -164 c 12.4 -28.7 22.4 -28.1 23.7 -28 l 0.1 0 l 0.1 0 c 1.3 -0.1 11.3 -0.7 23.7 28 c 13.5 31.4 24.2 87.7 24.2 180 s -10.7 148.6 -24.2 180 c -12.4 28.7 -22.4 28.1 -23.7 28 l -0.1 0 l -0.1 0 c -1.3 0.1 -11.3 0.7 -23.7 -28 c -10.1 -23.4 -18.6 -60.5 -22.2 -116 l -18 0 l -30.1 0 c 8.8 140.7 47.6 192 94.1 192 c 53 0 96 -66.6 96 -256 S 469 0 416 0 c -46.2 0 -84.8 50.6 -93.9 189.1 l -5.8 -18.9 c -5.8 -18.7 -20.9 -33.1 -39.9 -37.9 l -95 -23.7 Z m 70.8 67.2 l -38.3 115 l -19 -10.7 c -3.3 -1.9 -4.9 -5.9 -3.7 -9.5 L 225 169 l 27.1 6.8 Z M 122.5 317.1 L 103.4 368 L 24 368 c -13.3 0 -24 10.7 -24 24 s 10.7 24 24 24 l 84.9 0 c 16.7 0 31.6 -10.3 37.4 -25.9 l 14.1 -37.6 l -4.9 -2.8 c -14.1 -8 -25.4 -19.3 -33 -32.6 Z"></path>
</svg>
